<mxfile host="app.diagrams.net" modified="2023-10-03T14:57:07.085Z" agent="Mozilla/5.0 (X11; Linux x86_64; rv:109.0) Gecko/20100101 Firefox/114.0" version="22.0.2" etag="8b0SEpRwFii3NN3UZOzz" type="github">
  <diagram name="PÃ¡gina-1" id="Oz_tJyfslgWeZQ_9WS7X">
    <mxGraphModel>
      <root>
        <mxCell id="0" />
        <mxCell id="1" parent="0" />
      </root>
    </mxGraphModel>
  </diagram>
</mxfile>
